<svg xmlns="http://www.w3.org/2000/svg" viewBox="0 0 128 128" fill="none">
  <rect width="128" height="128" rx="28" fill="#14532d" />
  <path
    d="M64 18c18.9 0 34.2 15.2 34.2 34.1 0 22.6-19.4 39.2-31.5 51.2a3.8 3.8 0 0 1-5.4 0C49.2 91.3 29.8 74.7 29.8 52.1 29.8 33.2 45.1 18 64 18Z"
    fill="#f5f5f4"
  />
  <path
    d="M64.1 30.7c10.5 0 18.9 8.6 18.9 19.2 0 12.7-10 21.9-15.7 27.5a4.7 4.7 0 0 1-6.5 0C55 71.8 45 62.6 45 49.9c0-10.6 8.5-19.2 19.1-19.2Z"
    fill="#ca8a04"
  />
  <path
    d="M63.9 40.6c5.1 0 9.3 4.2 9.3 9.4s-4.2 9.4-9.3 9.4-9.3-4.2-9.3-9.4 4.2-9.4 9.3-9.4Z"
    fill="#14532d"
  />
  <path
    d="M29 88.5c9.8-5.3 21.4-8.1 35-8.1s25.2 2.8 35 8.1"
    stroke="#f5f5f4"
    stroke-width="8"
    stroke-linecap="round"
  />
</svg>
